<svg xmlns="http://www.w3.org/2000/svg" xmlns:svgjs="http://svgjs.com/svgjs" xmlns:xlink="http://www.w3.org/1999/xlink" width="288" height="288"><svg xmlns="http://www.w3.org/2000/svg" width="288" height="288" viewBox="0 0 32 32"><path fill="#fff" d="m21.956 16.364-5.992 5.3-5.992-5.3a1.007 1.007 0 0 0-1.422 1.422l6.69 5.918c.2.2.462.296.724.292a.994.994 0 0 0 .724-.29l6.69-5.918a1.007 1.007 0 0 0-1.422-1.424zm1.422-7.172a1.007 1.007 0 0 0-1.422 0l-5.992 5.3-5.992-5.3a1.007 1.007 0 0 0-1.424 1.422l6.69 5.918c.2.2.462.296.724.292a.993.993 0 0 0 .724-.292l6.69-5.918a1.001 1.001 0 0 0 .002-1.422z" class="color000 svgShape"/></svg></svg>